Coordinates
version=1
nRows=17
nColumns=40
inDegrees=yes

Units are S.I. units (second, meters, Newtons, ...)
Angles are in degrees.

endheader
time	pelvis_tilt	pelvis_list	pelvis_rotation	pelvis_tx	pelvis_ty	pelvis_tz	hip_flexion_r	hip_adduction_r	hip_rotation_r	knee_angle_r	knee_angle_r_beta	ankle_angle_r	subtalar_angle_r	mtp_angle_r	hip_flexion_l	hip_adduction_l	hip_rotation_l	knee_angle_l	knee_angle_l_beta	ankle_angle_l	subtalar_angle_l	mtp_angle_l	lumbar_extension	lumbar_bending	lumbar_rotation	arm_flex_r	arm_add_r	arm_rot_r	elbow_flex_r	pro_sup_r	wrist_flex_r	wrist_dev_r	arm_flex_l	arm_add_l	arm_rot_l	elbow_flex_l	pro_sup_l	wrist_flex_l	wrist_dev_l
      0.81000000	     -1.71349297	     10.00335975	     -3.59913630	     -0.72338028	      0.94427763	     -1.04133967	      5.19129246	    -24.40959002	    -13.15751508	    -51.76089378	     -0.90339802	    -10.15040959	     -2.65471801	     -7.09859542	     14.59954899	     -9.11028794	     13.79743872	    -15.86567260	     -0.27690822	      0.42507699	      8.93791167	     -0.80099004	     -0.51100076	    -11.05944904	      8.28984647	      1.98636448	    -10.93800348	    -12.08664892	     20.49055732	     89.95437384	      0.00000000	      0.00000000	    -12.81073038	     13.31810799	     12.42534319	      8.78852456	     89.95437384	      0.00000000	      0.00000000
      0.82000000	     -1.74282482	     10.05340890	     -4.04214415	     -0.71663400	      0.94472734	     -1.04313158	      7.07216640	    -24.58381788	    -12.44891531	    -53.71927328	     -0.93757819	     -8.99496525	     -5.30408400	     -6.81960643	     14.02183603	     -9.28122957	     14.15815062	    -15.52157960	     -0.27090267	      0.82190331	      8.62578645	     -0.86865489	     -0.45672191	    -11.12222838	      8.44377305	      1.89908379	    -10.96671502	    -12.00707416	     20.71634795	     89.95437384	      0.00000000	      0.00000000	    -12.57038992	     13.15023661	     12.28495280	      8.84827397	     89.95437384	      0.00000000	      0.00000000
      0.83000000	     -1.83544251	     10.08116170	     -4.46032536	     -0.70993127	      0.94510433	     -1.04476778	      8.95155472	    -24.64244978	    -11.80980682	    -55.35226567	     -0.96607928	     -8.24166573	     -8.13089315	     -6.30018082	     13.48986125	     -9.42313752	     14.56803585	    -15.12311258	     -0.26394811	      1.07093882	      8.44011647	     -0.91682111	     -0.35159801	    -11.17120196	      8.62782526	      1.89490206	    -10.99373292	    -11.98621783	     20.74599070	     89.95437384	      0.00000000	      0.00000000	    -12.25194766	     13.01053872	     12.05346192	      8.93568547	     89.95437384	      0.00000000	      0.00000000
      0.84000000	     -1.79057009	     10.02564398	     -4.77388807	     -0.70326027	      0.94574833	     -1.04642933	     10.51712081	    -24.62378655	    -11.48356200	    -56.67217046	     -0.98911597	     -7.33616609	    -10.46509589	     -5.82595349	     12.80112508	     -9.53624116	     14.79398029	    -14.74121993	     -0.25728282	      1.35541175	      8.24133759	     -0.98350342	     -0.43380014	    -11.13875691	      8.62165420	      1.94470368	    -10.99901531	    -11.97491603	     20.82348201	     89.95437384	      0.00000000	      0.00000000	    -11.91408720	     12.86121855	     11.84360498	      9.09910969	     89.95437384	      0.00000000	      0.00000000
      0.85000000	     -1.99425196	      9.79497372	     -5.05594744	     -0.69690733	      0.94616158	     -1.04768752	     12.44417819	    -24.16284844	    -10.98451887	    -57.98654686	     -1.01205616	     -4.61445536	    -12.99584091	     10.93376429	     12.45822143	     -9.31486469	     15.49327897	    -14.51580857	     -0.25334865	      1.38804170	      7.67680683	     -1.63704915	     -0.27694338	    -10.91379122	      8.80000283	      1.81596991	    -10.93491746	    -12.45906301	     21.09550649	     89.95437384	      0.00000000	      0.00000000	    -11.57507031	     12.83685868	     10.35534204	      9.49610490	     89.95437384	      0.00000000	      0.00000000
      0.86000000	     -1.83584531	      9.68312546	     -5.13206984	     -0.69015620	      0.94706389	     -1.04953557	     13.58847872	    -24.02088392	    -10.86695089	    -58.77360270	     -1.02579288	     -3.73693758	    -14.14189449	     10.82467915	     11.55885389	     -9.44907692	     15.50171765	    -14.03520096	     -0.24496047	      1.73686081	      7.46138944	     -1.69775061	     -0.53321400	    -10.83752089	      8.49650532	      1.85860376	    -10.95000996	    -12.21788326	     21.23853989	     89.95437384	      0.00000000	      0.00000000	    -11.07409220	     12.65864313	     10.28516103	      9.59460150	     89.95437384	      0.00000000	      0.00000000
      0.87000000	     -1.63667031	      9.63519669	     -5.32248459	     -0.68363991	      0.94811434	     -1.05093083	     14.70490649	    -23.76916920	    -10.53649501	    -59.16565158	     -1.03263542	     -3.13373168	    -15.71620990	     11.32401119	     10.54638354	     -9.63396337	     15.62583589	    -13.31388771	     -0.23237118	      1.73005496	      7.40886569	     -1.66513085	     -0.88840540	    -10.86408641	      8.26608306	      1.87342315	    -10.95208636	    -11.81848283	     21.61049626	     89.95437384	      0.00000000	      0.00000000	    -10.58010807	     12.53012864	     10.19907661	      9.91138746	     89.95437384	      0.00000000	      0.00000000
      0.88000000	     -1.52401962	      9.46979047	     -5.23275826	     -0.67716760	      0.94904839	     -1.05265145	     15.70512233	    -23.48569012	    -10.58220748	    -59.42448100	     -1.03715285	     -2.22513400	    -16.40728282	     11.33178975	      9.74464086	     -9.68704809	     15.45640412	    -12.91826797	     -0.22546631	      1.95704865	      7.09825473	     -1.71437787	     -1.15580007	    -10.74251387	      7.75742037	      1.99765119	    -10.90952102	    -11.73029804	     21.75089997	     89.95437384	      0.00000000	      0.00000000	     -9.98564808	     12.41781699	      9.93573145	     10.03322977	     89.95437384	      0.00000000	      0.00000000
      0.89000000	     -1.18842387	      9.19776308	     -5.07490778	     -0.67043619	      0.95034134	     -1.05437396	     16.28291474	    -23.03491334	    -10.69851937	    -59.38430123	     -1.03645158	     -1.13864591	    -16.90994771	     12.01393232	      8.59227275	     -9.66512987	     15.33398383	    -12.32085995	     -0.21503957	      1.96863908	      6.91460236	     -1.69446764	     -1.71001037	    -10.51626250	      7.29547529	      1.96757192	    -10.92562850	    -11.63227668	     22.08033630	     89.95437384	      0.00000000	      0.00000000	     -9.36816726	     12.35252699	      9.29015785	     10.45418139	     89.95437384	      0.00000000	      0.00000000
      0.90000000	     -1.22036080	      9.02578622	     -4.85382298	     -0.66421699	      0.95098677	     -1.05616331	     17.36403689	    -22.72359417	    -10.86566105	    -59.24125488	     -1.03395495	     -0.58919676	    -17.00049072	     11.88763146	      8.09103404	     -9.65095028	     15.42946153	    -12.16639384	     -0.21234363	      2.19204119	      6.75076671	     -1.72002573	     -1.89256280	    -10.35701201	      6.60513709	      2.11569180	    -10.84868361	    -11.55481687	     22.34264641	     89.95437384	      0.00000000	      0.00000000	     -8.75650377	     12.24781273	      9.08326242	     10.75062835	     89.95437384	      0.00000000	      0.00000000
      0.91000000	     -1.08642537	      8.66372024	     -4.55468214	     -0.65796842	      0.95193820	     -1.05774687	     18.03770469	    -22.09492715	    -11.08129108	    -58.81154303	     -1.02645506	      0.57142874	    -17.32617848	     12.10496079	      7.23750702	     -9.50055765	     14.71355607	    -11.73037636	     -0.20473369	      2.35637961	      6.35341668	     -1.77013155	     -2.28357772	    -10.03433717	      6.02929754	      2.13239371	    -10.83047561	    -11.44831645	     22.58146443	     89.95437384	      0.00000000	      0.00000000	     -7.97127265	     12.18656918	      8.34037003	     11.00558599	     89.95437384	      0.00000000	      0.00000000
      0.92000000	     -1.12747352	      8.47498992	     -4.23296010	     -0.65161538	      0.95245452	     -1.05955290	     18.98803489	    -21.76564681	    -11.41028095	    -58.25235263	     -1.01669535	      0.95137209	    -17.30883071	     12.11346560	      6.72490849	     -9.46340535	     14.70423552	    -11.57276152	     -0.20198279	      2.57932921	      6.22316298	     -1.81358333	     -2.43353034	     -9.85092747	      5.35813959	      2.17117623	    -10.77508797	    -11.35819080	     22.89586480	     89.95437384	      0.00000000	      0.00000000	     -7.28466561	     12.12217293	      7.90109155	     11.36965242	     89.95437384	      0.00000000	      0.00000000
      0.93000000	     -0.77889826	      7.87406795	     -3.62943184	     -0.64526721	      0.95372958	     -1.06138461	     19.08381004	    -21.01044935	    -12.17099525	    -57.30549790	     -1.00016962	      1.38636142	    -17.33254523	     13.04971484	      5.67193349	     -9.06758094	     13.78316254	    -11.28030436	     -0.19687845	      2.77226831	      6.06281628	     -1.95771309	     -3.10098674	     -9.24078464	      4.45354265	      2.26871201	    -10.72804108	    -11.47783571	     23.12490113	     89.95437384	      0.00000000	      0.00000000	     -6.51700742	     12.15808643	      6.35718445	     11.89028093	     89.95437384	      0.00000000	      0.00000000
      0.94000000	     -0.89112652	      7.60538748	     -3.28257612	     -0.63925405	      0.95394663	     -1.06298210	     20.09033668	    -20.48975008	    -12.37102768	    -56.55037662	     -0.98699027	      2.43172021	    -17.18544722	     17.68655969	      5.26587756	     -8.93481112	     13.51576144	    -11.10702173	     -0.19385410	      2.76166495	      6.00745385	     -3.12347527	     -3.19020865	     -8.96136573	      3.92845947	      2.27689173	    -10.63504400	    -11.83288473	     23.38378301	     89.95437384	      0.00000000	      0.00000000	     -5.72524066	     12.21808892	      4.90972065	     12.38303453	     89.95437384	      0.00000000	      0.00000000
      0.95000000	     -1.09621878	      7.50697996	     -2.97392970	     -0.63319189	      0.95388344	     -1.06453990	     21.22776346	    -20.17949401	    -12.45419212	    -55.69416847	     -0.97204661	      2.65171236	    -16.82776954	     17.35238183	      5.04836106	     -8.94000597	     13.55642740	    -11.10841118	     -0.19387835	      2.99486776	      5.83653428	     -3.14127986	     -3.13524407	     -8.86977961	      3.26159932	      2.31273656	    -10.53222390	    -11.75574001	     23.64662239	     89.95437384	      0.00000000	      0.00000000	     -4.99270335	     12.19825757	      4.70269332	     12.87550172	     89.95437384	      0.00000000	      0.00000000
      0.96000000	     -1.10725095	      6.91437748	     -2.36677449	     -0.62705168	      0.95420862	     -1.06629512	     21.69987293	    -19.39674963	    -13.14676379	    -54.36574507	     -0.94886125	      2.93547166	    -16.66930685	     17.07674198	      4.56453249	     -8.47634466	     12.70214370	    -11.13827296	     -0.19439954	      3.56748782	      5.82652718	     -3.43629943	     -3.36532846	     -8.21634963	      2.51407815	      2.40012436	    -10.48435045	    -12.11309819	     23.69910968	     89.95437384	      0.00000000	      0.00000000	     -4.06134541	     12.21370420	      3.37132194	     13.31086261	     89.95437384	      0.00000000	      0.00000000
      0.97000000	     -1.39641225	      6.68010491	     -2.11515299	     -0.62119451	      0.95384508	     -1.06740914	     22.84475494	    -18.83109551	    -13.15952705	    -53.24054561	     -0.92922282	      3.26471292	    -16.27919471	     16.72535943	      4.40848361	     -8.31897494	     12.39860310	    -11.05036940	     -0.19286533	      3.82824540	      5.60475720	     -3.52063724	     -3.22562689	     -7.98335622	      2.03024705	      2.47432550	    -10.38193362	    -12.05601749	     23.84986833	     89.95437384	      0.00000000	      0.00000000	     -3.16293594	     12.21941554	      2.96012448	     13.72175542	     89.95437384	      0.00000000	      0.00000000
